{"title":"Oblivion.2013.CAM.NEW.SOURCE.XViD-FANTA","uid":8386446,"size":2078671979,"categoryP":"video","categoryS":"movies","magnet":"?xt=urn:btih:0ca11b20c546c8e11193810960e7147d14441a94&amp;dn=Oblivion.2013.CAM.NEW.SOURCE.XViD-FANTA&amp;tr=udp%3A%2F%2Ftracker.openbittorrent.com%3A80&amp;tr=udp%3A%2F%2Fopen.demonii.com%3A1337&amp;tr=udp%3A%2F%2Ftracker.coppersurfer.tk%3A6969&amp;tr=udp%3A%2F%2Fexodus.desync.com%3A6969","seeders":1,"leechers":0,"uploader":"xxxlavalxxx","files":7,"time":1366297446,"description":"  &lt;a href=&quot;\nhttp://www.imdb.com/title/tt1483013/&quot; rel=&quot;nofollow&quot; target=&quot;_NEW&quot;&gt;\nhttp://www.imdb.com/title/tt1483013/&lt;/a&gt;\n\n\n\nA veteran assigned to extract Earth's remaining resources begins to question what he knows about his mission and himself. \n\n\n\nDirector:\n Joseph Kosinski \n\nWriters:\n Joseph Kosinski ,Karl Gajdusek \n\nStars:\n Tom Cruise, Morgan Freeman, Andrea Riseborough \n\nGenres:\n  Action |  Adventure |  Sci-Fi |  Thriller \n\nCountry:\n USA \n\nLanguage:\n English \n\n\nFormat                                   : AVI\nFormat/Info                              : Audio Video Interleave\nFormat profile                           : OpenDML\nFormat settings                          : rec\nFile size                                : 1.90 GiB\nDuration                                 : 1h 55mn\nOverall bit rate                         : 2 356 Kbps\nWriting application                      : AVI-Mux GUI 1.17.8.3, Feb 16 201019:42:50\n\nVideo\nID                                       : 0\nFormat                                   : MPEG-4 Visual\nFormat profile                           : Advanced Simple@L5\nFormat settings, BVOP                    : 2\nFormat settings, QPel                    : No\nFormat settings, GMC                     : No warppoints\nFormat settings, Matrix                  : Default (MPEG)\nCodec ID                                 : XVID\nCodec ID/Hint                            : XviD\nDuration                                 : 1h 55mn\nBit rate                                 : 2 158 Kbps\nWidth                                    : 720 pixels\nHeight                                   : 304 pixels\nDisplay aspect ratio                     : 2.35:1\nFrame rate                               : 29.970 fps\nColor space                              : YUV\nChroma subsampling                       : 4:2:0\nBit depth                                : 8 bits\nScan type                                : Progressive\nCompression mode                         : Lossy\nBits/(Pixel*Frame)                       : 0.329\nStream size                              : 1.74 GiB (92%)\nWriting library                          : XviD 1.2.1 (UTC 2008-12-04)\n\nAudio\nID                                       : 1\nFormat                                   : AC-3\nFormat/Info                              : Audio Coding 3\nMode extension                           : CM (complete main)\nFormat settings, Endianness              : Big\nCodec ID                                 : 2000\nDuration                                 : 1h 55mn\nBit rate mode                            : Constant\nBit rate                                 : 192 Kbps\nChannel(s)                               : 2 channels\nChannel positions                        : Front: L R\nSampling rate                            : 48.0 KHz\nBit depth                                : 16 bits\nCompression mode                         : Lossy\nStream size                              : 158 MiB (8%)\nAlignment                                : Aligned on interleaves\nInterleave, duration                     : 64 ms (1.92 video frames)\nInterleave, preload duration             : 192 ms\nTitle                                    : audio-eng\n\n\n\n &lt;a href=&quot;\nhttp://www.shotpix.com/images/96831709429247314310.png&quot; rel=&quot;nofollow&quot; target=&quot;_NEW&quot;&gt;\nhttp://www.shotpix.com/images/96831709429247314310.png&lt;/a&gt;\n\n &lt;a href=&quot;\nhttp://www.shotpix.com/images/13772823396124499732.png&quot; rel=&quot;nofollow&quot; target=&quot;_NEW&quot;&gt;\nhttp://www.shotpix.com/images/13772823396124499732.png&lt;/a&gt; &lt;a href=&quot;\nhttp://www.shotpix.com/images/43100368544524811388.png&quot; rel=&quot;nofollow&quot; target=&quot;_NEW&quot;&gt;\nhttp://www.shotpix.com/images/43100368544524811388.png&lt;/a&gt;\n\n","torrent":{"xt":"urn:btih:0ca11b20c546c8e11193810960e7147d14441a94","amp;dn":"Oblivion.2013.CAM.NEW.SOURCE.XViD-FANTA","amp;tr":["udp%3A%2F%2Ftracker.openbittorrent.com%3A80","udp%3A%2F%2Fopen.demonii.com%3A1337","udp%3A%2F%2Ftracker.coppersurfer.tk%3A6969","udp%3A%2F%2Fexodus.desync.com%3A6969"],"infoHash":"0ca11b20c546c8e11193810960e7147d14441a94","infoHashBuffer":{"type":"Buffer","data":[12,161,27,32,197,70,200,225,17,147,129,9,96,231,20,125,20,68,26,148]},"announce":[],"urlList":[]}}